<?xml version="1.0" encoding="UTF-8" standalone="no"?>
<svg
   height="1024px"
   version="1.1"
   viewBox="0 0 1024 1024"
   width="1024px"
   id="svg2"
   sodipodi:docname="gray_die.svg"
   inkscape:version="1.4.3 (0d15f75, 2025-12-25)"
   xmlns:inkscape="http://www.inkscape.org/namespaces/inkscape"
   xmlns:sodipodi="http://sodipodi.sourceforge.net/DTD/sodipodi-0.dtd"
   xmlns="http://www.w3.org/2000/svg"
   xmlns:svg="http://www.w3.org/2000/svg">
  <sodipodi:namedview
     id="namedview2"
     pagecolor="#ffffff"
     bordercolor="#000000"
     borderopacity="0.25"
     inkscape:showpageshadow="2"
     inkscape:pageopacity="0.0"
     inkscape:pagecheckerboard="0"
     inkscape:deskcolor="#d1d1d1"
     inkscape:zoom="1.7724609"
     inkscape:cx="512"
     inkscape:cy="512"
     inkscape:window-width="3840"
     inkscape:window-height="2054"
     inkscape:window-x="3829"
     inkscape:window-y="-11"
     inkscape:window-maximized="1"
     inkscape:current-layer="svg2" />
  <defs
     id="defs1" />
  <rect
     fill="#7b8086"
     height="1024"
     width="1024"
     x="0"
     y="0"
     id="rect1" />
  <path
     d="m 390.5,511 v -4 l 1,-1 v -10 l 1,-1 v -5 l 1,-1 1,-8 1,-1 v -2 l 1,-1 v -2 l 1,-1 2,-8 7,-14 2,-2 1,-3 2,-2 2,-4 8,-9 v -1 l 8,-8 h 1 l 10,-9 h 1 l 5,-4 3,-1 2,-2 14,-7 h 2 l 3,-2 h 2 l 4,-2 h 3 l 4,-2 10,-1 1,-1 h 7 l 1,-1 h 19 l 1,1 h 8 l 1,1 9,1 4,2 h 3 l 1,1 5,1 24,12 2,2 4,2 3,3 h 1 l 6,6 h 1 l 7,7 v 1 l 9,10 v 1 l 4,5 1,3 2,2 7,14 v 2 l 3,6 v 3 l 2,4 v 3 l 1,1 1,10 1,1 v 10 l 1,1 v 8 l -1,1 v 11 l -1,1 v 6 l -1,1 -1,8 -1,1 v 2 l -1,1 v 2 l -1,1 -2,8 -6,12 -2,2 -1,3 -2,2 -4,7 -4,4 v 1 l -16,16 h -1 l -7,6 h -1 l -5,4 -3,1 -2,2 -10,5 h -2 l -3,2 h -2 l -3,2 h -3 l -1,1 h -2 l -4,2 h -4 l -1,1 h -4 l -1,1 h -8 l -1,1 h -19 l -1,-1 h -7 l -1,-1 h -5 l -1,-1 -7,-1 -1,-1 h -2 l -1,-1 -8,-2 -5,-3 h -2 l -8,-4 -2,-2 -3,-1 -2,-2 -4,-2 -8,-7 h -1 l -14,-14 v -1 l -4,-4 v -1 l -3,-3 v -1 l -4,-5 -1,-3 -2,-2 -3,-6 v -2 l -4,-7 v -2 l -1,-1 v -2 l -1,-1 v -2 l -2,-4 v -3 l -1,-1 -1,-10 -1,-1 v -10 l -1,-1 v -5 z"
     fill="#ffffff"
     stroke="none"
     id="path1" />
</svg>
