<svg id="svg" version="1.1" viewBox="0 0 300 300" width="300" height="300" xmlns="http://www.w3.org/2000/svg"><svg xmlns="http://www.w3.org/2000/svg"><defs><clipPath id="clip-1"><rect x="0" y="0" transform="scale(0.14648,0.14648)" width="2048" height="2048" fill="none"/></clipPath></defs><g clip-path="url(#clip-1)" fill="none" fill-rule="nonzero" stroke="none" stroke-width="1" stroke-linecap="butt" stroke-linejoin="miter" stroke-miterlimit="10" stroke-dasharray="" stroke-dashoffset="0" font-family="none" font-weight="none" font-size="none" text-anchor="none" style="mix-blend-mode: normal"><path d="M0,0h300v300h-300z" fill="#22703e"/><path d="M256.19092,37.75107c0.57422,0.09653 0.33838,-0.0249 0.75146,0.34321c0.56836,1.9002 -5.85791,11.77778 -7.17627,13.87471c-19.36377,30.11587 -46.06494,54.81592 -77.59424,71.78027c-9.87598,5.20283 -20.07715,9.71089 -30.69565,13.16221c-2.00903,0.65288 -4.01763,0.92358 -5.67568,2.34434c-2.53081,2.16885 -3.76406,6.92124 1.15049,6.56602c2.78027,-0.24653 5.95371,-1.4584 8.64038,-2.39341c9.48428,-3.30103 18.6791,-7.50205 27.6542,-12.00425c15.01904,-7.56123 29.49463,-16.15898 43.32129,-25.73086c7.59668,-5.31929 15.14648,-10.81084 22.15283,-16.89229c0.75146,-0.65273 4.15869,-4.17407 4.90283,-3.02065c0.24609,2.13809 -5.31152,9.90542 -6.6958,11.91563c-19.79883,28.76147 -48.12891,53.23711 -78.87598,69.66973c-7.56445,4.02246 -15.38584,7.53662 -23.41523,10.52197c-2.1123,0.79541 -4.24014,1.54834 -6.38218,2.25879c-1.73833,0.56543 -3.72598,1.0752 -5.38799,1.85889c-1.65469,0.57568 -3.99507,4.55127 -3.21987,6.1626c1.40142,2.91211 9.65669,-0.35596 11.76387,-1.10156c15.58477,-5.51514 30.31523,-13.1792 44.92412,-20.84326c5.38623,-2.82568 10.66113,-5.90918 16.05615,-8.69824c2.48438,-1.3667 15.25195,-8.36133 16.79297,-8.37598c0.27832,-0.00293 0.16406,-0.02197 0.3999,0.2168c0.15234,0.66504 -0.15234,1.49707 -0.55518,2.01416c-25.06201,32.0874 -67.30034,54.36328 -105.36416,64.88965c-5.90391,1.57471 -11.86304,2.93555 -17.86553,4.07813c-2.12388,0.41455 -4.25508,0.78955 -6.39229,1.12793c-2.71963,0.41895 -7.80278,0.89795 -10.11372,1.58936c-3.06592,0.91699 -2.002,8.15332 -1.00664,10.27295c0.23804,0.50684 1.40288,2.88281 1.23062,3.38086c-1.31851,0.89209 -5.09194,-1.2334 -6.25605,-2.06689c-11.21909,-8.02881 -16.95527,-22.31104 -16.53237,-35.86377c0.0876,-2.80371 0.49805,-7.8501 3.58257,-8.99707c0.9936,0.09668 1.37666,1.19824 1.89185,2.05664c1.93374,3.21973 6.31846,7.02979 10.43027,5.99561c7.34136,-1.84863 13.07109,-9.63867 17.38711,-15.4834c15.40796,-22.27441 24.34937,-52.52637 13.44961,-78.60396c-1.7291,-4.14199 -3.71982,-7.82578 -6.45776,-11.36748c-1.03711,-1.34165 -2.73867,-3.07397 -3.03267,-4.71841c0.03882,-0.10356 0.07778,-0.20698 0.1166,-0.31055c1.16953,-0.36138 4.93184,0.07749 6.0063,0.1374c16.38208,0.9126 33.50669,0.8896 49.78887,-1.08472c35.43721,-3.94497 69.44063,-16.19985 99.24727,-35.76768c4.57471,-2.98447 8.97803,-6.38701 13.21143,-9.83965c1.27881,-1.04312 2.46533,-2.1353 3.84229,-3.05376z" fill="#fefefe"/></g></svg></svg>