<svg id="svg" version="1.1" viewBox="0 0 300 300" width="300" height="300" xmlns="http://www.w3.org/2000/svg"><svg xmlns="http://www.w3.org/2000/svg"><defs><clipPath id="clip-1"><rect x="0" y="0" transform="scale(0.14648,0.14648)" width="2048" height="2048" fill="none"/></clipPath></defs><g clip-path="url(#clip-1)" fill="none" fill-rule="nonzero" stroke="none" stroke-width="1" stroke-linecap="butt" stroke-linejoin="miter" stroke-miterlimit="10" stroke-dasharray="" stroke-dashoffset="0" font-family="none" font-weight="none" font-size="none" text-anchor="none" style="mix-blend-mode: normal"><path d="M0,0h300v300h-300z" fill="#2466af"/><path d="M120.94717,65.83564c10.17305,-0.48501 20.65664,3.08306 28.94883,9.03135c10.87793,7.80264 19.01221,19.96538 23.83594,32.32939c1.76367,4.52007 3.72217,14.01899 4.44434,18.82192c0.9917,6.59238 0.82178,13.79399 1.95264,20.51733c3.21533,1.39014 7.78125,4.34473 10.72852,6.25488c14.38477,9.3208 27.14648,20.59717 37.03125,34.67578c1.396,1.96729 2.73193,3.97559 4.00342,6.0249c2.22803,3.60938 4.64355,8.29688 7.91602,10.88232c6.01465,4.75195 15.30762,5.25879 22.58496,3.85107c2.2998,-0.44385 4.44727,-1.23047 6.71924,-1.52197c0.48926,-0.10693 2.45068,0.02051 2.73926,0.54053c1.87207,3.36182 -7.91895,7.08838 -9.49658,7.6333c-7.89844,2.72461 -15.74707,0.43506 -23.1167,-2.60596c-2.85791,-1.1792 -5.76562,-2.45947 -8.93262,-2.2749c-7.66992,1.06787 -6.95947,5.625 -16.40771,5.33936c-4.06348,3.44238 -6.90234,4.80029 -12.38818,5.18994c-5.98389,0.42627 -9.41602,-0.75879 -14.15771,-4.14551c-3.92139,-0.22705 -6.04541,-0.6709 -9.73975,-2.1416c-4.01514,-1.59814 -6.35596,-4.5835 -10.75781,-4.50732c-3.87451,0.06738 -5.94873,1.48975 -9.58594,2.18555c-0.53174,0.10254 -0.86865,-0.00879 -1.2832,-0.33984c-1.62598,-2.87549 2.78613,-6.26221 4.99072,-7.44287c2.62354,-1.6377 8.58838,-2.62793 11.54443,-1.24805c7.979,3.72363 9.05127,1.83984 8.44775,-6.73682c-0.6416,-9.13623 -4.27734,-16.36084 -8.94434,-24.24463c-7.76367,-13.11768 -20.354,-22.07812 -35.18877,-25.45488c-16.1354,-3.54609 -35.75654,-1.10552 -50.00684,7.82695c-12.99375,8.14453 -16.55581,16.58203 -17.45098,31.64063c-0.1667,2.80225 0.19849,5.91943 -0.09653,8.6543c-0.04468,0.41455 -0.32812,0.63867 -0.66211,0.82471c-2.41787,-0.57568 -3.30791,-9.33252 -3.87759,-11.37012c-1.01045,-3.61377 -2.2626,-6.74121 -2.37671,-10.5498c-7.78066,9.1377 -13.14595,20.27051 -11.42607,32.61328c0.35361,2.53857 1.25654,5.09619 2.06748,7.52197c-3.66753,-2.95312 -5.12373,-5.21924 -7.13789,-9.49658c-3.19365,-6.33545 -3.15674,-14.87842 -2.24707,-21.84229c1.51143,-11.5708 13.91279,-21.38232 22.87573,-27.92285c-0.85298,-6.47314 2.51191,-12.53247 6.02681,-17.71567c16.61426,-24.50039 54.6772,-26.08652 77.68608,-11.17925c-14.25688,-15.32695 -30.80947,-26.81001 -52.83501,-23.14893c-17.38418,2.8897 -33.17476,14.07993 -43.7959,27.84492c-1.79854,2.35386 -3.48486,4.7915 -5.05327,7.30474c-0.91641,1.49473 -1.81875,3.25063 -2.82744,4.65015l-0.12964,0.17783c-0.03589,-2.96265 0.86558,-8.21631 1.65322,-11.1498c1.29126,-4.80864 6.12393,-9.42422 9.32871,-13.26123c-3.85562,2.79419 -6.70752,5.26816 -10.40771,8.09355c0.07808,-0.46421 0.18135,-0.92402 0.30923,-1.37725c0.62417,-2.22847 2.02793,-4.77187 3.1459,-6.82251c5.47529,-10.21289 13.74302,-18.65742 23.83799,-24.34731c29.52305,-16.74668 62.13398,-6.21563 83.50635,18.02197c4.9043,5.56143 9.54492,11.57153 13.21143,18.02607c-2.98682,-12.82852 -10.61133,-25.47715 -19.98193,-34.59785c-14.79551,-14.40308 -35.34053,-18.51738 -55.33975,-17.2957c-1.74214,0.10649 -3.48369,0.32959 -5.24399,0.37822c4.05352,-3.86602 10.17759,-4.78975 14.97554,-7.06597c6.22969,-2.95547 9.30615,-4.62715 16.38398,-5.04946z" fill="#fefefe"/><path d="M79.49927,144.32827c1.98779,-2.53462 4.63857,-4.86621 7.22432,-6.78003c15.26426,-11.29746 37.87354,-7.98794 53.08579,1.81685c-16.75327,-2.49785 -32.80708,-2.14746 -49.02759,3.17534c-2.3603,0.79058 -4.68882,1.67256 -6.98042,2.64419c-1.02305,0.44326 -2.83477,1.34517 -3.80142,1.68208c-0.25356,0.23438 -3.65977,1.95996 -4.1625,2.21924c1.08398,-1.53223 2.39985,-3.39023 3.66182,-4.75767z" fill="#2466af"/><path d="M79.49927,144.32827c-0.39331,1.33169 -1.55991,1.96802 -1.96465,3.12144l0.18662,0.12158c0.49907,-0.13623 2.03101,-0.95215 2.27871,-0.70459c-0.25356,0.23438 -3.65977,1.95996 -4.1625,2.21924c1.08398,-1.53223 2.39985,-3.39023 3.66182,-4.75767z" fill="#2875b9"/></g></svg></svg>