<svg id="svg" version="1.1" viewBox="0 0 300 300" width="300" height="300" xmlns="http://www.w3.org/2000/svg"><svg xmlns="http://www.w3.org/2000/svg"><defs><clipPath id="clip-1"><rect x="0" y="0" transform="scale(0.14648,0.14648)" width="2048" height="2048" fill="none"/></clipPath></defs><g clip-path="url(#clip-1)" fill="none" fill-rule="nonzero" stroke="none" stroke-width="1" stroke-linecap="butt" stroke-linejoin="miter" stroke-miterlimit="10" stroke-dasharray="" stroke-dashoffset="0" font-family="none" font-weight="none" font-size="none" text-anchor="none" style="mix-blend-mode: normal"><path d="M0,0h300v300h-300z" fill="#502726"/><path d="M63.47358,54.85005c3.20244,1.85625 6.60059,4.05073 9.76567,6.0145l16.304,10.09878c3.45615,2.14351 7.12251,4.56006 10.67314,6.5083c0.74751,0.4103 3.68188,1.27764 4.66318,1.5835l7.38823,2.31343l26.1394,8.26934c-2.10674,4.46924 -4.34209,10.03433 -6.34072,14.66353l-12.76934,29.56362l-30.30146,-9.44663l-2.14307,20.23242c-0.36738,3.47271 -0.97397,7.95366 -1.15005,11.34331c-0.40137,7.72852 -0.31011,15.73242 -0.70605,23.45654c-0.14194,5.63379 -0.42378,11.60596 -0.45308,17.1958l-53.97847,-10.14844c-0.93516,-2.90332 -2.19141,-6.20654 -3.22134,-9.11572l-6.25649,-17.64551c-0.43638,-1.22607 -3.15073,-8.5752 -3.10181,-9.15381c0.69404,-8.20591 1.94561,-20.36938 2.84473,-28.18066c5.8377,-6.60366 12.2751,-13.41724 18.25869,-19.91938l4.73071,-5.1252c3.39595,-3.67471 3.40532,-4.01177 5.34653,-8.60903l3.56367,-8.44028l6.83467,-16.11987c1.29111,-3.04102 2.73604,-6.28066 3.90923,-9.33853z" fill="#fefefe"/><path d="M238.2583,54.92124c0.56836,0.50918 11.8374,27.83364 13.1748,30.75776c0.47168,1.03257 2.89893,7.21479 3.49805,8.0061c2.01416,2.66001 5.35254,6.06094 7.6377,8.55l18.50098,20.1772l2.1167,20.40381c0.16992,1.68413 1.01514,7.06084 0.60938,8.36016c-0.93457,2.99854 -2.32324,6.6416 -3.38232,9.63721l-9.09668,25.69629c-5.98096,1.02686 -12.15088,2.26611 -18.12744,3.39258l-35.81396,6.73682c-0.19336,-5.58398 -0.34424,-11.16797 -0.45117,-16.75342c-0.54199,-7.71094 -0.25342,-16.25537 -0.74121,-24.01465c-0.22266,-3.53613 -0.77344,-7.72412 -1.15137,-11.28589l-2.13281,-20.13589c-3.71924,1.05659 -7.69775,2.37671 -11.4082,3.53071l-18.89209,5.90112l-19.10449,-44.25146l25.37695,-8.01035l7.8208,-2.4687c4.71533,-1.49019 5.72461,-1.97373 9.9082,-4.59858l6.85693,-4.26797z" fill="#fefefe"/><path d="M255.49951,196.60693l0.18164,0.05566l-0.01172,0.24023l-13.46484,19.91602c-1.31396,1.94092 -4.98779,8.06689 -6.75586,9.25781c-3.15674,2.12549 -6.91406,4.42236 -10.17041,6.50537l-27.74561,17.74658c-0.12598,-0.00439 -0.04395,0.01025 -0.2124,-0.12891c0.14209,-0.92139 0.55664,-2.02002 0.80859,-2.96777c0.84961,-3.10547 1.7168,-6.20508 2.60156,-9.30029l7.79883,-27.75293z" fill="#fefefe"/><path d="M39.34746,196.53223c1.25991,0.21533 3.75776,1.01953 5.08257,1.40479l9.65654,2.80518l32.62749,9.41895l11.33921,40.27734c-1.5123,-0.63574 -38.52861,-24.43506 -39.11528,-25.08398c-1.97388,-2.18408 -4.5583,-6.58154 -6.32212,-9.19189z" fill="#fefefe"/></g></svg></svg>