<?xml version="1.0" encoding="UTF-8" standalone="no"?>
<svg
   height="1024px"
   version="1.1"
   viewBox="0 0 1024 1024"
   width="1024px"
   id="svg4"
   sodipodi:docname="purple_die.svg"
   inkscape:version="1.4.3 (0d15f75, 2025-12-25)"
   xmlns:inkscape="http://www.inkscape.org/namespaces/inkscape"
   xmlns:sodipodi="http://sodipodi.sourceforge.net/DTD/sodipodi-0.dtd"
   xmlns="http://www.w3.org/2000/svg"
   xmlns:svg="http://www.w3.org/2000/svg">
  <sodipodi:namedview
     id="namedview4"
     pagecolor="#ffffff"
     bordercolor="#000000"
     borderopacity="0.25"
     inkscape:showpageshadow="2"
     inkscape:pageopacity="0.0"
     inkscape:pagecheckerboard="0"
     inkscape:deskcolor="#d1d1d1"
     inkscape:zoom="1.7724609"
     inkscape:cx="512.00001"
     inkscape:cy="512.00001"
     inkscape:window-width="3840"
     inkscape:window-height="2054"
     inkscape:window-x="3829"
     inkscape:window-y="-11"
     inkscape:window-maximized="1"
     inkscape:current-layer="svg4" />
  <defs
     id="defs1" />
  <rect
     fill="#8641a0"
     height="1024"
     width="1024"
     x="0"
     y="0"
     id="rect1" />
  <path
     d="M 153.0,255.0 L 154.0,254.0 L 154.0,242.0 L 155.0,241.0 L 155.0,236.0 L 156.0,235.0 L 156.0,231.0 L 157.0,230.0 L 157.0,227.0 L 158.0,226.0 L 159.0,221.0 L 161.0,218.0 L 161.0,216.0 L 163.0,213.0 L 163.0,211.0 L 166.0,207.0 L 168.0,202.0 L 170.0,200.0 L 174.0,193.0 L 179.0,188.0 L 179.0,187.0 L 193.0,174.0 L 197.0,172.0 L 200.0,169.0 L 203.0,168.0 L 205.0,166.0 L 213.0,162.0 L 215.0,162.0 L 223.0,158.0 L 226.0,158.0 L 227.0,157.0 L 233.0,156.0 L 234.0,155.0 L 239.0,155.0 L 240.0,154.0 L 250.0,154.0 L 251.0,153.0 L 271.0,154.0 L 272.0,155.0 L 276.0,155.0 L 277.0,156.0 L 281.0,156.0 L 285.0,158.0 L 288.0,158.0 L 291.0,160.0 L 293.0,160.0 L 296.0,162.0 L 298.0,162.0 L 302.0,164.0 L 304.0,166.0 L 309.0,168.0 L 311.0,170.0 L 315.0,172.0 L 318.0,175.0 L 319.0,175.0 L 323.0,179.0 L 324.0,179.0 L 336.0,192.0 L 336.0,193.0 L 339.0,196.0 L 339.0,197.0 L 343.0,202.0 L 350.0,216.0 L 350.0,218.0 L 352.0,221.0 L 352.0,223.0 L 354.0,227.0 L 354.0,230.0 L 355.0,231.0 L 355.0,234.0 L 356.0,235.0 L 356.0,240.0 L 357.0,241.0 L 357.0,269.0 L 356.0,270.0 L 356.0,275.0 L 355.0,276.0 L 355.0,279.0 L 354.0,280.0 L 353.0,287.0 L 350.0,293.0 L 350.0,295.0 L 343.0,309.0 L 341.0,311.0 L 339.0,315.0 L 336.0,318.0 L 336.0,319.0 L 327.0,329.0 L 326.0,329.0 L 320.0,335.0 L 319.0,335.0 L 309.0,343.0 L 293.0,351.0 L 291.0,351.0 L 290.0,352.0 L 288.0,352.0 L 287.0,353.0 L 285.0,353.0 L 281.0,355.0 L 271.0,356.0 L 270.0,357.0 L 259.0,357.0 L 258.0,358.0 L 254.0,358.0 L 253.0,357.0 L 242.0,357.0 L 241.0,356.0 L 235.0,356.0 L 234.0,355.0 L 231.0,355.0 L 230.0,354.0 L 227.0,354.0 L 226.0,353.0 L 218.0,351.0 L 202.0,343.0 L 200.0,341.0 L 196.0,339.0 L 193.0,336.0 L 192.0,336.0 L 187.0,331.0 L 186.0,331.0 L 179.0,324.0 L 179.0,323.0 L 172.0,315.0 L 172.0,314.0 L 168.0,309.0 L 166.0,304.0 L 163.0,300.0 L 163.0,298.0 L 159.0,290.0 L 159.0,288.0 L 157.0,284.0 L 157.0,281.0 L 156.0,280.0 L 155.0,270.0 L 154.0,269.0 L 154.0,260.0 L 153.0,259.0 L 153.0,256.0 Z"
     fill="#ffffff"
     stroke="none"
     id="path1" />
  <path
     d="m 410.5,511.5 v -13 l 1,-1 v -5 l 1,-1 1,-8 1,-1 1,-5 2,-3 v -2 l 7,-14 2,-2 2,-4 3,-3 v -1 l 8,-8 v -1 h 1 l 8,-8 h 1 l 3,-3 h 1 l 5,-4 14,-7 h 2 l 3,-2 h 2 l 4,-2 h 3 l 1,-1 h 3 l 1,-1 h 5 l 1,-1 h 29 l 1,1 h 4 l 1,1 8,1 1,1 5,1 5,3 h 2 l 10,5 2,2 3,1 7,6 h 1 l 16,16 v 1 l 5,6 1,3 2,2 6,12 v 2 l 1,1 v 2 l 1,1 v 2 l 2,4 1,8 1,1 v 5 l 1,1 v 26 l -1,1 v 5 l -1,1 v 3 l -1,1 -1,7 -3,6 v 2 l -6,12 -2,2 -4,7 -3,3 v 1 l -15,15 h -1 l -3,3 h -1 l -3,3 -3,1 -2,2 -12,6 h -2 l -3,2 h -2 l -4,2 h -3 l -1,1 -10,1 -1,1 h -27 l -1,-1 h -5 l -1,-1 h -4 l -4,-2 h -3 l -3,-2 h -2 l -3,-2 h -2 l -10,-5 -2,-2 -7,-4 -3,-3 h -1 l -7,-7 h -1 l -11,-13 v -1 l -4,-5 -7,-14 v -2 l -3,-6 v -3 l -1,-1 v -3 l -1,-1 v -3 l -1,-1 v -4 l -1,-1 v -14 z"
     fill="#ffffff"
     stroke="none"
     id="path2" />
  <path
     d="M 665.0,767.0 L 665.0,755.0 L 666.0,754.0 L 667.0,744.0 L 668.0,743.0 L 668.0,740.0 L 669.0,739.0 L 671.0,731.0 L 674.0,726.0 L 674.0,724.0 L 677.0,718.0 L 679.0,716.0 L 680.0,713.0 L 682.0,711.0 L 684.0,707.0 L 687.0,704.0 L 687.0,703.0 L 702.0,688.0 L 703.0,688.0 L 706.0,685.0 L 707.0,685.0 L 715.0,679.0 L 725.0,674.0 L 727.0,674.0 L 732.0,671.0 L 734.0,671.0 L 738.0,669.0 L 741.0,669.0 L 742.0,668.0 L 745.0,668.0 L 746.0,667.0 L 751.0,667.0 L 752.0,666.0 L 782.0,666.0 L 783.0,667.0 L 788.0,667.0 L 789.0,668.0 L 796.0,669.0 L 797.0,670.0 L 802.0,671.0 L 805.0,673.0 L 807.0,673.0 L 819.0,679.0 L 821.0,681.0 L 828.0,685.0 L 832.0,689.0 L 833.0,689.0 L 847.0,703.0 L 847.0,704.0 L 850.0,707.0 L 850.0,708.0 L 854.0,713.0 L 855.0,716.0 L 857.0,718.0 L 861.0,726.0 L 861.0,728.0 L 863.0,731.0 L 863.0,733.0 L 864.0,734.0 L 864.0,736.0 L 866.0,740.0 L 867.0,748.0 L 868.0,749.0 L 868.0,754.0 L 869.0,755.0 L 869.0,780.0 L 868.0,781.0 L 868.0,786.0 L 867.0,787.0 L 866.0,795.0 L 865.0,796.0 L 865.0,798.0 L 864.0,799.0 L 862.0,807.0 L 856.0,819.0 L 854.0,821.0 L 850.0,828.0 L 847.0,831.0 L 847.0,832.0 L 832.0,847.0 L 831.0,847.0 L 824.0,853.0 L 818.0,856.0 L 816.0,858.0 L 810.0,861.0 L 808.0,861.0 L 803.0,864.0 L 798.0,865.0 L 797.0,866.0 L 794.0,866.0 L 793.0,867.0 L 790.0,867.0 L 789.0,868.0 L 785.0,868.0 L 784.0,869.0 L 778.0,869.0 L 777.0,870.0 L 756.0,870.0 L 755.0,869.0 L 749.0,869.0 L 748.0,868.0 L 745.0,868.0 L 744.0,867.0 L 737.0,866.0 L 731.0,863.0 L 729.0,863.0 L 715.0,856.0 L 713.0,854.0 L 710.0,853.0 L 703.0,847.0 L 702.0,847.0 L 687.0,832.0 L 687.0,831.0 L 684.0,828.0 L 684.0,827.0 L 678.0,819.0 L 674.0,811.0 L 674.0,809.0 L 671.0,804.0 L 671.0,802.0 L 669.0,798.0 L 669.0,795.0 L 668.0,794.0 L 668.0,791.0 L 667.0,790.0 L 667.0,787.0 L 666.0,786.0 L 666.0,781.0 L 665.0,780.0 L 665.0,768.0 Z"
     fill="#ffffff"
     stroke="none"
     id="path3" />
</svg>
