<?xml version="1.0" encoding="UTF-8" standalone="no"?>
<svg
   height="1024px"
   version="1.1"
   viewBox="0 0 1024 1024"
   width="1024px"
   id="svg8"
   sodipodi:docname="red_die.svg"
   inkscape:version="1.4.3 (0d15f75, 2025-12-25)"
   xmlns:inkscape="http://www.inkscape.org/namespaces/inkscape"
   xmlns:sodipodi="http://sodipodi.sourceforge.net/DTD/sodipodi-0.dtd"
   xmlns="http://www.w3.org/2000/svg"
   xmlns:svg="http://www.w3.org/2000/svg">
  <sodipodi:namedview
     id="namedview8"
     pagecolor="#ffffff"
     bordercolor="#000000"
     borderopacity="0.25"
     inkscape:showpageshadow="2"
     inkscape:pageopacity="0.0"
     inkscape:pagecheckerboard="0"
     inkscape:deskcolor="#d1d1d1"
     inkscape:zoom="1.7724609"
     inkscape:cx="512"
     inkscape:cy="512"
     inkscape:window-width="3840"
     inkscape:window-height="2054"
     inkscape:window-x="3829"
     inkscape:window-y="-11"
     inkscape:window-maximized="1"
     inkscape:current-layer="svg8" />
  <defs
     id="defs1" />
  <rect
     fill="#d5215d"
     height="1024"
     width="1024"
     x="0"
     y="0"
     id="rect1" />
  <path
     d="M 117.0,237.0 L 117.0,230.0 L 118.0,229.0 L 118.0,219.0 L 119.0,218.0 L 119.0,215.0 L 120.0,214.0 L 120.0,210.0 L 122.0,206.0 L 122.0,202.0 L 124.0,199.0 L 126.0,191.0 L 132.0,179.0 L 134.0,177.0 L 135.0,174.0 L 137.0,172.0 L 139.0,168.0 L 142.0,165.0 L 142.0,164.0 L 146.0,160.0 L 146.0,159.0 L 152.0,153.0 L 152.0,152.0 L 153.0,152.0 L 158.0,147.0 L 159.0,147.0 L 164.0,142.0 L 165.0,142.0 L 172.0,136.0 L 177.0,134.0 L 182.0,130.0 L 184.0,130.0 L 196.0,124.0 L 198.0,124.0 L 202.0,122.0 L 205.0,122.0 L 209.0,120.0 L 213.0,120.0 L 214.0,119.0 L 217.0,119.0 L 218.0,118.0 L 228.0,118.0 L 229.0,117.0 L 247.0,117.0 L 248.0,118.0 L 257.0,118.0 L 258.0,119.0 L 261.0,119.0 L 262.0,120.0 L 266.0,120.0 L 270.0,122.0 L 273.0,122.0 L 276.0,124.0 L 279.0,124.0 L 282.0,126.0 L 284.0,126.0 L 296.0,132.0 L 298.0,134.0 L 301.0,135.0 L 307.0,140.0 L 311.0,142.0 L 315.0,146.0 L 316.0,146.0 L 333.0,164.0 L 333.0,165.0 L 338.0,171.0 L 339.0,174.0 L 341.0,176.0 L 343.0,181.0 L 345.0,183.0 L 347.0,187.0 L 347.0,189.0 L 351.0,196.0 L 351.0,199.0 L 353.0,202.0 L 353.0,206.0 L 355.0,210.0 L 355.0,214.0 L 356.0,215.0 L 356.0,219.0 L 357.0,220.0 L 357.0,229.0 L 358.0,230.0 L 358.0,245.0 L 357.0,246.0 L 357.0,257.0 L 356.0,258.0 L 356.0,261.0 L 355.0,262.0 L 355.0,267.0 L 353.0,270.0 L 353.0,273.0 L 352.0,274.0 L 351.0,279.0 L 349.0,282.0 L 349.0,285.0 L 347.0,287.0 L 345.0,291.0 L 345.0,293.0 L 343.0,295.0 L 343.0,297.0 L 341.0,298.0 L 339.0,303.0 L 333.0,310.0 L 333.0,311.0 L 330.0,314.0 L 330.0,315.0 L 323.0,322.0 L 323.0,323.0 L 322.0,323.0 L 311.0,333.0 L 310.0,333.0 L 307.0,336.0 L 301.0,339.0 L 296.0,343.0 L 288.0,347.0 L 286.0,347.0 L 283.0,349.0 L 281.0,349.0 L 278.0,351.0 L 276.0,351.0 L 273.0,353.0 L 270.0,353.0 L 269.0,354.0 L 266.0,354.0 L 265.0,355.0 L 261.0,355.0 L 260.0,356.0 L 257.0,356.0 L 256.0,357.0 L 247.0,357.0 L 246.0,358.0 L 230.0,358.0 L 229.0,357.0 L 219.0,357.0 L 218.0,356.0 L 214.0,356.0 L 213.0,355.0 L 209.0,355.0 L 205.0,353.0 L 202.0,353.0 L 199.0,351.0 L 196.0,351.0 L 174.0,340.0 L 168.0,335.0 L 164.0,333.0 L 159.0,328.0 L 158.0,328.0 L 142.0,311.0 L 142.0,310.0 L 139.0,307.0 L 139.0,306.0 L 135.0,301.0 L 134.0,298.0 L 130.0,293.0 L 130.0,291.0 L 124.0,279.0 L 124.0,276.0 L 122.0,273.0 L 122.0,270.0 L 120.0,266.0 L 120.0,261.0 L 119.0,260.0 L 119.0,257.0 L 118.0,256.0 L 118.0,246.0 L 117.0,245.0 L 117.0,238.0 Z"
     fill="#ffffff"
     stroke="none"
     id="path1" />
  <path
     d="M 665.0,237.0 L 665.0,230.0 L 666.0,229.0 L 666.0,219.0 L 667.0,218.0 L 667.0,215.0 L 668.0,214.0 L 668.0,209.0 L 670.0,206.0 L 670.0,202.0 L 672.0,199.0 L 672.0,196.0 L 675.0,191.0 L 675.0,189.0 L 680.0,179.0 L 682.0,177.0 L 683.0,174.0 L 688.0,168.0 L 690.0,164.0 L 694.0,160.0 L 694.0,159.0 L 706.0,147.0 L 707.0,147.0 L 709.0,145.0 L 709.0,144.0 L 710.0,144.0 L 712.0,142.0 L 716.0,140.0 L 719.0,137.0 L 722.0,136.0 L 727.0,132.0 L 739.0,126.0 L 741.0,126.0 L 744.0,124.0 L 747.0,124.0 L 750.0,122.0 L 753.0,122.0 L 757.0,120.0 L 761.0,120.0 L 762.0,119.0 L 765.0,119.0 L 766.0,118.0 L 776.0,118.0 L 777.0,117.0 L 795.0,117.0 L 796.0,118.0 L 805.0,118.0 L 806.0,119.0 L 809.0,119.0 L 810.0,120.0 L 814.0,120.0 L 818.0,122.0 L 821.0,122.0 L 824.0,124.0 L 827.0,124.0 L 830.0,126.0 L 832.0,126.0 L 844.0,132.0 L 846.0,134.0 L 849.0,135.0 L 851.0,137.0 L 855.0,139.0 L 858.0,142.0 L 862.0,144.0 L 862.0,145.0 L 864.0,146.0 L 878.0,160.0 L 878.0,161.0 L 882.0,165.0 L 884.0,169.0 L 887.0,172.0 L 889.0,177.0 L 891.0,179.0 L 897.0,191.0 L 899.0,199.0 L 901.0,202.0 L 901.0,206.0 L 903.0,210.0 L 903.0,214.0 L 904.0,215.0 L 904.0,219.0 L 905.0,220.0 L 905.0,229.0 L 906.0,230.0 L 906.0,246.0 L 905.0,247.0 L 905.0,257.0 L 904.0,258.0 L 904.0,261.0 L 903.0,262.0 L 903.0,267.0 L 901.0,270.0 L 901.0,273.0 L 900.0,274.0 L 899.0,279.0 L 897.0,282.0 L 897.0,285.0 L 895.0,287.0 L 895.0,289.0 L 893.0,291.0 L 893.0,293.0 L 891.0,295.0 L 889.0,300.0 L 887.0,302.0 L 885.0,306.0 L 882.0,309.0 L 882.0,310.0 L 877.0,315.0 L 875.0,319.0 L 874.0,319.0 L 871.0,322.0 L 871.0,323.0 L 870.0,323.0 L 864.0,329.0 L 863.0,329.0 L 855.0,336.0 L 849.0,339.0 L 844.0,343.0 L 834.0,348.0 L 832.0,348.0 L 827.0,351.0 L 824.0,351.0 L 821.0,353.0 L 818.0,353.0 L 815.0,355.0 L 810.0,355.0 L 809.0,356.0 L 805.0,356.0 L 804.0,357.0 L 794.0,357.0 L 793.0,358.0 L 779.0,358.0 L 778.0,357.0 L 768.0,357.0 L 767.0,356.0 L 757.0,355.0 L 753.0,353.0 L 750.0,353.0 L 747.0,351.0 L 744.0,351.0 L 720.0,339.0 L 717.0,336.0 L 716.0,336.0 L 713.0,333.0 L 712.0,333.0 L 708.0,329.0 L 707.0,329.0 L 703.0,325.0 L 702.0,325.0 L 702.0,324.0 L 693.0,315.0 L 693.0,314.0 L 684.0,303.0 L 683.0,300.0 L 681.0,298.0 L 674.0,284.0 L 672.0,276.0 L 670.0,273.0 L 670.0,270.0 L 669.0,269.0 L 669.0,266.0 L 668.0,265.0 L 668.0,261.0 L 666.0,257.0 L 666.0,247.0 L 665.0,246.0 L 665.0,238.0 Z"
     fill="#ffffff"
     stroke="none"
     id="path2" />
  <path
     d="M 117.0,511.0 L 118.0,493.0 L 119.0,492.0 L 119.0,489.0 L 120.0,488.0 L 120.0,483.0 L 122.0,479.0 L 122.0,476.0 L 124.0,473.0 L 124.0,470.0 L 126.0,467.0 L 126.0,464.0 L 128.0,462.0 L 128.0,460.0 L 130.0,458.0 L 134.0,449.0 L 136.0,447.0 L 138.0,443.0 L 141.0,440.0 L 141.0,439.0 L 145.0,435.0 L 145.0,434.0 L 161.0,418.0 L 162.0,418.0 L 166.0,414.0 L 167.0,414.0 L 172.0,410.0 L 175.0,409.0 L 177.0,407.0 L 184.0,404.0 L 186.0,402.0 L 188.0,402.0 L 196.0,398.0 L 198.0,398.0 L 202.0,396.0 L 205.0,396.0 L 209.0,394.0 L 214.0,394.0 L 218.0,392.0 L 229.0,392.0 L 230.0,391.0 L 244.0,391.0 L 245.0,392.0 L 256.0,392.0 L 257.0,393.0 L 260.0,393.0 L 261.0,394.0 L 266.0,394.0 L 270.0,396.0 L 273.0,396.0 L 276.0,398.0 L 279.0,398.0 L 281.0,400.0 L 283.0,400.0 L 286.0,402.0 L 288.0,402.0 L 296.0,406.0 L 298.0,408.0 L 301.0,409.0 L 303.0,411.0 L 307.0,413.0 L 310.0,416.0 L 311.0,416.0 L 316.0,421.0 L 317.0,421.0 L 333.0,438.0 L 333.0,439.0 L 338.0,445.0 L 339.0,448.0 L 341.0,450.0 L 343.0,455.0 L 345.0,457.0 L 347.0,461.0 L 347.0,463.0 L 349.0,466.0 L 349.0,468.0 L 351.0,470.0 L 351.0,473.0 L 353.0,476.0 L 353.0,480.0 L 355.0,484.0 L 355.0,488.0 L 356.0,489.0 L 356.0,493.0 L 357.0,494.0 L 357.0,504.0 L 358.0,505.0 L 358.0,519.0 L 357.0,520.0 L 357.0,530.0 L 356.0,531.0 L 356.0,534.0 L 355.0,535.0 L 355.0,541.0 L 353.0,544.0 L 353.0,547.0 L 351.0,550.0 L 351.0,553.0 L 349.0,556.0 L 349.0,558.0 L 343.0,570.0 L 339.0,575.0 L 339.0,577.0 L 337.0,579.0 L 337.0,580.0 L 335.0,581.0 L 333.0,585.0 L 328.0,590.0 L 328.0,591.0 L 311.0,607.0 L 310.0,607.0 L 307.0,610.0 L 301.0,613.0 L 296.0,617.0 L 286.0,622.0 L 284.0,622.0 L 279.0,625.0 L 276.0,625.0 L 273.0,627.0 L 270.0,627.0 L 269.0,628.0 L 266.0,628.0 L 265.0,629.0 L 261.0,629.0 L 260.0,630.0 L 257.0,630.0 L 256.0,631.0 L 247.0,631.0 L 246.0,632.0 L 230.0,632.0 L 229.0,631.0 L 219.0,631.0 L 218.0,630.0 L 209.0,629.0 L 205.0,627.0 L 202.0,627.0 L 201.0,626.0 L 196.0,625.0 L 174.0,614.0 L 172.0,612.0 L 168.0,610.0 L 165.0,607.0 L 164.0,607.0 L 159.0,602.0 L 158.0,602.0 L 146.0,590.0 L 146.0,589.0 L 142.0,585.0 L 142.0,584.0 L 140.0,583.0 L 139.0,580.0 L 132.0,570.0 L 128.0,562.0 L 128.0,560.0 L 126.0,558.0 L 126.0,556.0 L 124.0,553.0 L 124.0,550.0 L 122.0,547.0 L 122.0,544.0 L 120.0,540.0 L 120.0,535.0 L 119.0,534.0 L 119.0,531.0 L 118.0,530.0 L 117.0,512.0 Z"
     fill="#ffffff"
     stroke="none"
     id="path3" />
  <path
     d="M 391.0,511.0 L 392.0,494.0 L 393.0,493.0 L 394.0,483.0 L 396.0,479.0 L 396.0,476.0 L 398.0,473.0 L 398.0,470.0 L 410.0,446.0 L 413.0,443.0 L 413.0,442.0 L 416.0,439.0 L 416.0,438.0 L 419.0,435.0 L 419.0,434.0 L 434.0,419.0 L 435.0,419.0 L 439.0,415.0 L 440.0,415.0 L 446.0,410.0 L 458.0,404.0 L 460.0,402.0 L 462.0,402.0 L 465.0,400.0 L 467.0,400.0 L 475.0,396.0 L 479.0,396.0 L 482.0,394.0 L 487.0,394.0 L 488.0,393.0 L 491.0,393.0 L 492.0,392.0 L 502.0,392.0 L 503.0,391.0 L 519.0,391.0 L 520.0,392.0 L 530.0,392.0 L 531.0,393.0 L 540.0,394.0 L 544.0,396.0 L 547.0,396.0 L 548.0,397.0 L 553.0,398.0 L 577.0,410.0 L 584.0,416.0 L 588.0,418.0 L 589.0,420.0 L 592.0,421.0 L 592.0,422.0 L 605.0,435.0 L 605.0,436.0 L 609.0,440.0 L 621.0,461.0 L 621.0,463.0 L 625.0,470.0 L 625.0,473.0 L 626.0,474.0 L 627.0,480.0 L 629.0,484.0 L 629.0,489.0 L 630.0,490.0 L 630.0,494.0 L 631.0,495.0 L 631.0,504.0 L 632.0,505.0 L 632.0,519.0 L 631.0,520.0 L 631.0,530.0 L 630.0,531.0 L 630.0,534.0 L 629.0,535.0 L 629.0,539.0 L 627.0,543.0 L 627.0,547.0 L 625.0,550.0 L 625.0,553.0 L 623.0,556.0 L 623.0,558.0 L 621.0,561.0 L 621.0,563.0 L 619.0,565.0 L 617.0,570.0 L 615.0,572.0 L 614.0,575.0 L 612.0,577.0 L 610.0,581.0 L 603.0,589.0 L 603.0,590.0 L 590.0,603.0 L 589.0,603.0 L 581.0,610.0 L 580.0,610.0 L 575.0,614.0 L 572.0,615.0 L 570.0,617.0 L 560.0,622.0 L 558.0,622.0 L 553.0,625.0 L 551.0,625.0 L 547.0,627.0 L 544.0,627.0 L 543.0,628.0 L 540.0,628.0 L 539.0,629.0 L 535.0,629.0 L 534.0,630.0 L 531.0,630.0 L 530.0,631.0 L 521.0,631.0 L 520.0,632.0 L 504.0,632.0 L 503.0,631.0 L 493.0,631.0 L 492.0,630.0 L 488.0,630.0 L 487.0,629.0 L 483.0,629.0 L 479.0,627.0 L 476.0,627.0 L 475.0,626.0 L 470.0,625.0 L 465.0,622.0 L 463.0,622.0 L 453.0,617.0 L 451.0,615.0 L 448.0,614.0 L 446.0,612.0 L 442.0,610.0 L 434.0,603.0 L 433.0,603.0 L 420.0,590.0 L 420.0,589.0 L 416.0,585.0 L 416.0,584.0 L 413.0,581.0 L 413.0,580.0 L 409.0,575.0 L 408.0,572.0 L 406.0,570.0 L 402.0,562.0 L 402.0,560.0 L 398.0,553.0 L 398.0,550.0 L 396.0,547.0 L 396.0,544.0 L 394.0,540.0 L 394.0,535.0 L 393.0,534.0 L 393.0,531.0 L 392.0,530.0 L 391.0,512.0 Z"
     fill="#ffffff"
     stroke="none"
     id="path4" />
  <path
     d="M 665.0,511.0 L 665.0,504.0 L 666.0,503.0 L 666.0,494.0 L 667.0,493.0 L 668.0,484.0 L 670.0,480.0 L 670.0,476.0 L 672.0,473.0 L 673.0,468.0 L 676.0,463.0 L 676.0,461.0 L 680.0,453.0 L 687.0,443.0 L 688.0,440.0 L 690.0,439.0 L 690.0,438.0 L 694.0,434.0 L 694.0,433.0 L 708.0,419.0 L 709.0,419.0 L 713.0,415.0 L 717.0,413.0 L 720.0,410.0 L 725.0,408.0 L 727.0,406.0 L 739.0,400.0 L 741.0,400.0 L 744.0,398.0 L 747.0,398.0 L 750.0,396.0 L 753.0,396.0 L 756.0,394.0 L 761.0,394.0 L 762.0,393.0 L 765.0,393.0 L 766.0,392.0 L 776.0,392.0 L 777.0,391.0 L 793.0,391.0 L 794.0,392.0 L 803.0,392.0 L 804.0,393.0 L 814.0,394.0 L 818.0,396.0 L 821.0,396.0 L 822.0,397.0 L 827.0,398.0 L 830.0,400.0 L 832.0,400.0 L 835.0,402.0 L 837.0,402.0 L 839.0,404.0 L 851.0,410.0 L 861.0,418.0 L 862.0,418.0 L 878.0,434.0 L 878.0,435.0 L 883.0,440.0 L 883.0,441.0 L 887.0,446.0 L 888.0,449.0 L 890.0,451.0 L 893.0,458.0 L 895.0,460.0 L 895.0,462.0 L 897.0,465.0 L 897.0,467.0 L 898.0,468.0 L 898.0,470.0 L 899.0,471.0 L 899.0,473.0 L 901.0,477.0 L 901.0,480.0 L 903.0,484.0 L 903.0,488.0 L 904.0,489.0 L 904.0,493.0 L 905.0,494.0 L 905.0,503.0 L 906.0,504.0 L 906.0,519.0 L 905.0,520.0 L 905.0,531.0 L 903.0,535.0 L 903.0,539.0 L 902.0,540.0 L 902.0,543.0 L 901.0,544.0 L 901.0,546.0 L 899.0,550.0 L 899.0,553.0 L 887.0,577.0 L 884.0,580.0 L 884.0,581.0 L 881.0,584.0 L 881.0,585.0 L 877.0,589.0 L 877.0,590.0 L 863.0,604.0 L 862.0,604.0 L 859.0,607.0 L 858.0,607.0 L 854.0,611.0 L 846.0,615.0 L 844.0,617.0 L 834.0,622.0 L 832.0,622.0 L 827.0,625.0 L 825.0,625.0 L 821.0,627.0 L 818.0,627.0 L 817.0,628.0 L 814.0,628.0 L 813.0,629.0 L 810.0,629.0 L 809.0,630.0 L 805.0,630.0 L 804.0,631.0 L 796.0,631.0 L 795.0,632.0 L 779.0,632.0 L 778.0,631.0 L 767.0,631.0 L 766.0,630.0 L 763.0,630.0 L 762.0,629.0 L 757.0,629.0 L 753.0,627.0 L 750.0,627.0 L 747.0,625.0 L 744.0,625.0 L 737.0,621.0 L 735.0,621.0 L 727.0,617.0 L 722.0,613.0 L 720.0,613.0 L 718.0,611.0 L 717.0,611.0 L 716.0,609.0 L 714.0,609.0 L 713.0,607.0 L 712.0,607.0 L 707.0,602.0 L 706.0,602.0 L 694.0,590.0 L 694.0,589.0 L 690.0,585.0 L 690.0,584.0 L 680.0,570.0 L 675.0,560.0 L 675.0,558.0 L 672.0,553.0 L 672.0,550.0 L 670.0,546.0 L 670.0,543.0 L 668.0,539.0 L 668.0,535.0 L 667.0,534.0 L 667.0,531.0 L 666.0,530.0 L 666.0,520.0 L 665.0,519.0 L 665.0,512.0 Z"
     fill="#ffffff"
     stroke="none"
     id="path5" />
  <path
     d="M 117.0,786.0 L 118.0,767.0 L 119.0,766.0 L 119.0,763.0 L 120.0,762.0 L 121.0,754.0 L 122.0,753.0 L 122.0,751.0 L 124.0,747.0 L 124.0,744.0 L 126.0,741.0 L 126.0,739.0 L 128.0,736.0 L 128.0,734.0 L 130.0,732.0 L 133.0,725.0 L 135.0,723.0 L 138.0,717.0 L 145.0,709.0 L 145.0,708.0 L 161.0,692.0 L 162.0,692.0 L 165.0,689.0 L 166.0,689.0 L 172.0,684.0 L 175.0,683.0 L 177.0,681.0 L 191.0,674.0 L 193.0,674.0 L 196.0,672.0 L 198.0,672.0 L 202.0,670.0 L 205.0,670.0 L 208.0,668.0 L 213.0,668.0 L 214.0,667.0 L 217.0,667.0 L 218.0,666.0 L 228.0,666.0 L 229.0,665.0 L 247.0,665.0 L 248.0,666.0 L 257.0,666.0 L 258.0,667.0 L 261.0,667.0 L 262.0,668.0 L 266.0,668.0 L 270.0,670.0 L 273.0,670.0 L 274.0,671.0 L 279.0,672.0 L 282.0,674.0 L 284.0,674.0 L 298.0,681.0 L 300.0,683.0 L 303.0,684.0 L 310.0,690.0 L 311.0,690.0 L 315.0,694.0 L 316.0,694.0 L 330.0,708.0 L 330.0,709.0 L 335.0,714.0 L 335.0,715.0 L 341.0,723.0 L 347.0,735.0 L 347.0,737.0 L 350.0,742.0 L 350.0,744.0 L 353.0,750.0 L 353.0,753.0 L 355.0,757.0 L 355.0,762.0 L 356.0,763.0 L 356.0,767.0 L 357.0,768.0 L 357.0,778.0 L 358.0,779.0 L 358.0,794.0 L 357.0,795.0 L 357.0,805.0 L 356.0,806.0 L 356.0,809.0 L 355.0,810.0 L 355.0,816.0 L 353.0,818.0 L 353.0,822.0 L 349.0,830.0 L 349.0,833.0 L 347.0,835.0 L 347.0,837.0 L 343.0,845.0 L 341.0,847.0 L 341.0,849.0 L 339.0,850.0 L 339.0,851.0 L 337.0,853.0 L 335.0,857.0 L 332.0,860.0 L 332.0,861.0 L 329.0,864.0 L 329.0,865.0 L 312.0,881.0 L 311.0,881.0 L 304.0,887.0 L 296.0,891.0 L 291.0,895.0 L 289.0,895.0 L 286.0,897.0 L 284.0,897.0 L 276.0,901.0 L 273.0,901.0 L 272.0,902.0 L 266.0,903.0 L 262.0,905.0 L 256.0,905.0 L 255.0,906.0 L 250.0,906.0 L 249.0,907.0 L 227.0,907.0 L 226.0,906.0 L 213.0,905.0 L 209.0,903.0 L 206.0,903.0 L 202.0,901.0 L 199.0,901.0 L 196.0,899.0 L 194.0,899.0 L 191.0,897.0 L 189.0,897.0 L 179.0,892.0 L 177.0,890.0 L 174.0,889.0 L 172.0,887.0 L 168.0,885.0 L 165.0,882.0 L 162.0,881.0 L 162.0,880.0 L 159.0,877.0 L 158.0,877.0 L 146.0,865.0 L 146.0,864.0 L 142.0,860.0 L 142.0,859.0 L 137.0,853.0 L 134.0,847.0 L 132.0,845.0 L 128.0,837.0 L 128.0,835.0 L 126.0,833.0 L 126.0,831.0 L 124.0,828.0 L 124.0,825.0 L 123.0,824.0 L 123.0,822.0 L 122.0,821.0 L 122.0,819.0 L 120.0,815.0 L 120.0,810.0 L 119.0,809.0 L 119.0,806.0 L 118.0,805.0 L 118.0,795.0 L 117.0,794.0 L 117.0,787.0 Z"
     fill="#ffffff"
     stroke="none"
     id="path6" />
  <path
     d="M 665.0,785.0 L 665.0,779.0 L 666.0,778.0 L 666.0,767.0 L 667.0,766.0 L 667.0,763.0 L 668.0,762.0 L 668.0,757.0 L 670.0,753.0 L 670.0,750.0 L 672.0,747.0 L 672.0,744.0 L 674.0,741.0 L 674.0,739.0 L 682.0,723.0 L 684.0,721.0 L 686.0,717.0 L 689.0,714.0 L 689.0,713.0 L 692.0,710.0 L 692.0,709.0 L 708.0,693.0 L 709.0,693.0 L 714.0,688.0 L 715.0,688.0 L 720.0,684.0 L 723.0,683.0 L 725.0,681.0 L 728.0,680.0 L 730.0,678.0 L 732.0,678.0 L 734.0,676.0 L 736.0,676.0 L 739.0,674.0 L 741.0,674.0 L 743.0,672.0 L 746.0,672.0 L 749.0,670.0 L 753.0,670.0 L 756.0,668.0 L 761.0,668.0 L 762.0,667.0 L 765.0,667.0 L 766.0,666.0 L 776.0,666.0 L 777.0,665.0 L 794.0,665.0 L 795.0,666.0 L 805.0,666.0 L 806.0,667.0 L 815.0,668.0 L 816.0,669.0 L 818.0,669.0 L 819.0,670.0 L 821.0,670.0 L 825.0,672.0 L 828.0,672.0 L 830.0,674.0 L 833.0,674.0 L 835.0,676.0 L 837.0,676.0 L 839.0,678.0 L 851.0,684.0 L 858.0,690.0 L 862.0,692.0 L 870.0,700.0 L 871.0,700.0 L 871.0,701.0 L 878.0,708.0 L 878.0,709.0 L 885.0,717.0 L 888.0,723.0 L 890.0,725.0 L 891.0,728.0 L 893.0,730.0 L 893.0,732.0 L 895.0,734.0 L 895.0,736.0 L 897.0,738.0 L 897.0,741.0 L 899.0,744.0 L 899.0,747.0 L 901.0,750.0 L 901.0,753.0 L 903.0,757.0 L 903.0,762.0 L 904.0,763.0 L 904.0,766.0 L 905.0,767.0 L 905.0,776.0 L 906.0,777.0 L 906.0,796.0 L 905.0,797.0 L 905.0,806.0 L 904.0,807.0 L 904.0,810.0 L 903.0,811.0 L 903.0,815.0 L 901.0,819.0 L 901.0,822.0 L 899.0,825.0 L 899.0,828.0 L 897.0,831.0 L 897.0,833.0 L 895.0,836.0 L 895.0,838.0 L 893.0,840.0 L 888.0,850.0 L 886.0,852.0 L 884.0,856.0 L 881.0,859.0 L 881.0,860.0 L 877.0,864.0 L 877.0,865.0 L 864.0,878.0 L 863.0,878.0 L 859.0,882.0 L 858.0,882.0 L 855.0,885.0 L 854.0,885.0 L 849.0,889.0 L 841.0,893.0 L 839.0,895.0 L 837.0,895.0 L 832.0,898.0 L 827.0,899.0 L 824.0,901.0 L 822.0,901.0 L 818.0,903.0 L 814.0,903.0 L 810.0,905.0 L 798.0,906.0 L 797.0,907.0 L 775.0,907.0 L 774.0,906.0 L 762.0,905.0 L 761.0,904.0 L 754.0,903.0 L 750.0,901.0 L 747.0,901.0 L 744.0,899.0 L 742.0,899.0 L 739.0,897.0 L 737.0,897.0 L 729.0,893.0 L 727.0,891.0 L 722.0,889.0 L 719.0,886.0 L 713.0,883.0 L 712.0,881.0 L 711.0,881.0 L 705.0,875.0 L 704.0,875.0 L 696.0,867.0 L 696.0,866.0 L 688.0,857.0 L 688.0,856.0 L 682.0,848.0 L 680.0,843.0 L 678.0,841.0 L 676.0,837.0 L 676.0,835.0 L 674.0,833.0 L 674.0,830.0 L 672.0,828.0 L 672.0,825.0 L 671.0,824.0 L 670.0,818.0 L 668.0,814.0 L 668.0,809.0 L 666.0,805.0 L 666.0,794.0 L 665.0,793.0 L 665.0,786.0 Z"
     fill="#ffffff"
     stroke="none"
     id="path7" />
</svg>
