<?xml version="1.0" encoding="UTF-8" standalone="no"?>
<svg
   height="1024px"
   version="1.1"
   viewBox="0 0 1024 1024"
   width="1024px"
   id="svg6"
   sodipodi:docname="yellow_die.svg"
   inkscape:version="1.4.3 (0d15f75, 2025-12-25)"
   xmlns:inkscape="http://www.inkscape.org/namespaces/inkscape"
   xmlns:sodipodi="http://sodipodi.sourceforge.net/DTD/sodipodi-0.dtd"
   xmlns="http://www.w3.org/2000/svg"
   xmlns:svg="http://www.w3.org/2000/svg">
  <sodipodi:namedview
     id="namedview6"
     pagecolor="#ffffff"
     bordercolor="#000000"
     borderopacity="0.25"
     inkscape:showpageshadow="2"
     inkscape:pageopacity="0.0"
     inkscape:pagecheckerboard="0"
     inkscape:deskcolor="#d1d1d1"
     inkscape:zoom="1.7724609"
     inkscape:cx="512.00001"
     inkscape:cy="512.00001"
     inkscape:window-width="3840"
     inkscape:window-height="2054"
     inkscape:window-x="3829"
     inkscape:window-y="-11"
     inkscape:window-maximized="1"
     inkscape:current-layer="svg6" />
  <defs
     id="defs1" />
  <rect
     fill="#fcc244"
     height="1024"
     width="1024"
     x="0"
     y="0"
     id="rect1" />
  <path
     d="M 148.0,254.0 L 148.0,242.0 L 149.0,241.0 L 150.0,231.0 L 151.0,230.0 L 151.0,227.0 L 152.0,226.0 L 154.0,218.0 L 156.0,215.0 L 156.0,213.0 L 158.0,210.0 L 158.0,208.0 L 160.0,206.0 L 160.0,204.0 L 162.0,202.0 L 164.0,197.0 L 169.0,191.0 L 169.0,190.0 L 173.0,186.0 L 173.0,185.0 L 186.0,172.0 L 187.0,172.0 L 191.0,168.0 L 192.0,168.0 L 197.0,164.0 L 202.0,162.0 L 204.0,160.0 L 210.0,157.0 L 212.0,157.0 L 217.0,154.0 L 219.0,154.0 L 223.0,152.0 L 226.0,152.0 L 230.0,150.0 L 233.0,150.0 L 234.0,149.0 L 239.0,149.0 L 240.0,148.0 L 249.0,148.0 L 250.0,147.0 L 251.0,148.0 L 252.0,147.0 L 254.0,147.0 L 255.0,148.0 L 269.0,148.0 L 270.0,149.0 L 275.0,149.0 L 276.0,150.0 L 280.0,150.0 L 281.0,151.0 L 283.0,151.0 L 284.0,152.0 L 286.0,152.0 L 287.0,153.0 L 295.0,155.0 L 311.0,163.0 L 317.0,168.0 L 321.0,170.0 L 326.0,175.0 L 327.0,175.0 L 335.0,183.0 L 335.0,184.0 L 339.0,188.0 L 339.0,189.0 L 342.0,192.0 L 342.0,193.0 L 348.0,201.0 L 353.0,211.0 L 353.0,213.0 L 355.0,216.0 L 355.0,218.0 L 357.0,222.0 L 357.0,225.0 L 358.0,226.0 L 358.0,228.0 L 359.0,229.0 L 359.0,233.0 L 360.0,234.0 L 360.0,238.0 L 361.0,239.0 L 361.0,244.0 L 362.0,245.0 L 362.0,261.0 L 361.0,262.0 L 361.0,271.0 L 360.0,272.0 L 360.0,277.0 L 359.0,278.0 L 359.0,281.0 L 357.0,285.0 L 357.0,288.0 L 355.0,291.0 L 355.0,293.0 L 352.0,298.0 L 352.0,300.0 L 349.0,306.0 L 347.0,308.0 L 345.0,313.0 L 340.0,319.0 L 340.0,320.0 L 322.0,338.0 L 321.0,338.0 L 318.0,341.0 L 317.0,341.0 L 309.0,347.0 L 306.0,348.0 L 304.0,350.0 L 300.0,351.0 L 295.0,354.0 L 293.0,354.0 L 287.0,357.0 L 284.0,357.0 L 280.0,359.0 L 276.0,359.0 L 275.0,360.0 L 271.0,360.0 L 270.0,361.0 L 259.0,361.0 L 258.0,362.0 L 247.0,362.0 L 246.0,361.0 L 240.0,361.0 L 239.0,360.0 L 235.0,360.0 L 234.0,359.0 L 226.0,358.0 L 225.0,357.0 L 223.0,357.0 L 222.0,356.0 L 214.0,354.0 L 202.0,348.0 L 200.0,346.0 L 193.0,342.0 L 190.0,339.0 L 186.0,337.0 L 174.0,325.0 L 174.0,324.0 L 166.0,315.0 L 162.0,307.0 L 160.0,305.0 L 160.0,303.0 L 158.0,301.0 L 158.0,299.0 L 154.0,291.0 L 154.0,289.0 L 152.0,285.0 L 152.0,282.0 L 150.0,278.0 L 150.0,273.0 L 149.0,272.0 L 149.0,268.0 L 148.0,267.0 L 148.0,255.0 Z"
     fill="#ffffff"
     stroke="none"
     id="path1" />
  <path
     d="M 661.0,254.0 L 662.0,238.0 L 663.0,237.0 L 664.0,229.0 L 666.0,225.0 L 666.0,222.0 L 667.0,221.0 L 668.0,216.0 L 670.0,213.0 L 670.0,211.0 L 675.0,201.0 L 677.0,199.0 L 681.0,192.0 L 684.0,189.0 L 684.0,188.0 L 689.0,183.0 L 689.0,182.0 L 702.0,170.0 L 703.0,170.0 L 714.0,162.0 L 717.0,161.0 L 719.0,159.0 L 721.0,159.0 L 728.0,155.0 L 730.0,155.0 L 731.0,154.0 L 733.0,154.0 L 734.0,153.0 L 736.0,153.0 L 737.0,152.0 L 739.0,152.0 L 743.0,150.0 L 753.0,149.0 L 754.0,148.0 L 783.0,148.0 L 784.0,149.0 L 793.0,150.0 L 794.0,151.0 L 800.0,152.0 L 801.0,153.0 L 806.0,154.0 L 809.0,156.0 L 811.0,156.0 L 813.0,158.0 L 815.0,158.0 L 819.0,160.0 L 821.0,162.0 L 826.0,164.0 L 828.0,166.0 L 832.0,168.0 L 836.0,172.0 L 837.0,172.0 L 851.0,186.0 L 851.0,187.0 L 857.0,194.0 L 860.0,200.0 L 862.0,202.0 L 864.0,206.0 L 864.0,208.0 L 867.0,213.0 L 867.0,215.0 L 869.0,218.0 L 869.0,220.0 L 870.0,221.0 L 870.0,223.0 L 872.0,227.0 L 873.0,235.0 L 874.0,236.0 L 874.0,242.0 L 875.0,243.0 L 875.0,266.0 L 874.0,267.0 L 874.0,273.0 L 873.0,274.0 L 873.0,278.0 L 871.0,282.0 L 871.0,285.0 L 870.0,286.0 L 868.0,294.0 L 865.0,299.0 L 865.0,301.0 L 862.0,307.0 L 860.0,309.0 L 857.0,315.0 L 849.0,324.0 L 849.0,325.0 L 837.0,337.0 L 833.0,339.0 L 829.0,343.0 L 811.0,353.0 L 809.0,353.0 L 806.0,355.0 L 804.0,355.0 L 803.0,356.0 L 801.0,356.0 L 797.0,358.0 L 794.0,358.0 L 793.0,359.0 L 789.0,359.0 L 788.0,360.0 L 784.0,360.0 L 783.0,361.0 L 772.0,361.0 L 771.0,362.0 L 761.0,362.0 L 760.0,361.0 L 748.0,360.0 L 747.0,359.0 L 744.0,359.0 L 743.0,358.0 L 740.0,358.0 L 739.0,357.0 L 736.0,357.0 L 735.0,356.0 L 730.0,355.0 L 714.0,347.0 L 712.0,345.0 L 705.0,341.0 L 698.0,335.0 L 697.0,335.0 L 694.0,332.0 L 694.0,331.0 L 685.0,322.0 L 685.0,321.0 L 679.0,314.0 L 670.0,298.0 L 670.0,296.0 L 668.0,293.0 L 668.0,291.0 L 667.0,290.0 L 667.0,288.0 L 665.0,284.0 L 665.0,281.0 L 664.0,280.0 L 664.0,277.0 L 663.0,276.0 L 663.0,273.0 L 662.0,272.0 L 662.0,263.0 L 661.0,262.0 L 661.0,255.0 Z"
     fill="#ffffff"
     stroke="none"
     id="path2" />
  <path
     d="m 404.5,511.5 1,-2 v -11 l 1,-1 v -5 l 1,-1 1,-8 1,-1 2,-8 2,-3 v -2 l 6,-12 2,-2 2,-4 3,-3 v -1 l 4,-4 v -1 l 14,-14 h 1 l 6,-5 3,-1 5,-4 12,-6 h 2 l 1,-1 h 2 l 1,-1 h 2 l 4,-2 h 3 l 1,-1 h 3 l 1,-1 h 6 l 1,-1 h 7 l 1,-1 h 10 l 1,1 h 8 l 1,1 h 6 l 1,1 7,1 1,1 h 2 l 1,1 8,2 12,6 2,2 6,3 6,5 h 1 l 14,14 v 1 l 4,4 v 1 l 3,3 v 1 l 3,3 1,3 2,2 3,6 v 2 l 2,3 v 2 l 2,4 v 3 l 2,4 v 3 l 1,1 v 3 l 1,1 v 4 l 1,1 v 10 l 1,1 v 6 l -1,1 v 10 l -1,1 v 5 l -1,1 -1,8 -1,1 -2,8 -2,3 v 2 l -5,10 -2,2 -4,7 -6,7 v 1 l -13,13 h -1 l -3,3 h -1 l -8,6 -5,2 -2,2 -8,4 h -2 l -1,1 h -2 l -4,2 h -3 l -1,1 -7,1 -1,1 h -6 l -1,1 h -11 l -1,1 -20,-2 -1,-1 h -4 l -1,-1 h -3 l -1,-1 h -3 l -1,-1 -5,-1 -12,-6 -2,-2 -8,-4 -4,-4 -4,-2 -17,-18 v -1 l -3,-3 -3,-6 -2,-2 -5,-10 v -2 l -2,-3 v -2 l -1,-1 v -2 l -2,-4 -1,-7 -1,-1 v -6 l -1,-1 v -9 l -1,-1 v -3 z"
     fill="#ffffff"
     stroke="none"
     id="path3" />
  <path
     d="M 148.0,767.0 L 148.0,759.0 L 149.0,758.0 L 150.0,746.0 L 151.0,745.0 L 151.0,742.0 L 152.0,741.0 L 152.0,738.0 L 153.0,737.0 L 154.0,732.0 L 156.0,729.0 L 156.0,727.0 L 163.0,713.0 L 165.0,711.0 L 166.0,708.0 L 172.0,701.0 L 172.0,700.0 L 186.0,686.0 L 187.0,686.0 L 191.0,682.0 L 192.0,682.0 L 195.0,679.0 L 201.0,676.0 L 203.0,674.0 L 207.0,672.0 L 209.0,672.0 L 214.0,669.0 L 219.0,668.0 L 222.0,666.0 L 225.0,666.0 L 229.0,664.0 L 237.0,663.0 L 238.0,662.0 L 243.0,662.0 L 244.0,661.0 L 260.0,661.0 L 261.0,662.0 L 271.0,662.0 L 272.0,663.0 L 276.0,663.0 L 277.0,664.0 L 285.0,665.0 L 286.0,666.0 L 291.0,667.0 L 296.0,670.0 L 298.0,670.0 L 308.0,675.0 L 310.0,677.0 L 313.0,678.0 L 315.0,680.0 L 319.0,682.0 L 337.0,699.0 L 337.0,700.0 L 341.0,704.0 L 341.0,705.0 L 346.0,711.0 L 347.0,714.0 L 349.0,716.0 L 352.0,722.0 L 352.0,724.0 L 354.0,727.0 L 354.0,729.0 L 355.0,730.0 L 355.0,732.0 L 356.0,733.0 L 356.0,735.0 L 357.0,736.0 L 357.0,738.0 L 359.0,742.0 L 359.0,746.0 L 360.0,747.0 L 360.0,751.0 L 361.0,752.0 L 361.0,757.0 L 362.0,758.0 L 362.0,779.0 L 361.0,780.0 L 361.0,785.0 L 360.0,786.0 L 360.0,790.0 L 359.0,791.0 L 359.0,794.0 L 357.0,798.0 L 357.0,801.0 L 355.0,804.0 L 355.0,806.0 L 351.0,814.0 L 351.0,816.0 L 349.0,818.0 L 349.0,820.0 L 347.0,822.0 L 343.0,829.0 L 340.0,832.0 L 340.0,833.0 L 336.0,837.0 L 336.0,838.0 L 325.0,849.0 L 324.0,849.0 L 320.0,853.0 L 319.0,853.0 L 316.0,856.0 L 315.0,856.0 L 310.0,860.0 L 296.0,867.0 L 294.0,867.0 L 291.0,869.0 L 288.0,869.0 L 287.0,870.0 L 281.0,871.0 L 277.0,873.0 L 271.0,873.0 L 270.0,874.0 L 264.0,874.0 L 263.0,875.0 L 246.0,875.0 L 245.0,874.0 L 238.0,874.0 L 237.0,873.0 L 229.0,872.0 L 228.0,871.0 L 226.0,871.0 L 225.0,870.0 L 223.0,870.0 L 222.0,869.0 L 214.0,867.0 L 198.0,859.0 L 195.0,856.0 L 194.0,856.0 L 191.0,853.0 L 190.0,853.0 L 185.0,848.0 L 184.0,848.0 L 169.0,832.0 L 167.0,828.0 L 164.0,825.0 L 156.0,809.0 L 156.0,807.0 L 154.0,804.0 L 154.0,802.0 L 152.0,798.0 L 151.0,791.0 L 150.0,790.0 L 149.0,778.0 L 148.0,777.0 L 148.0,768.0 Z"
     fill="#ffffff"
     stroke="none"
     id="path4" />
  <path
     d="M 661.0,767.0 L 661.0,760.0 L 662.0,759.0 L 662.0,750.0 L 663.0,749.0 L 664.0,742.0 L 666.0,738.0 L 666.0,735.0 L 668.0,732.0 L 669.0,727.0 L 671.0,724.0 L 671.0,722.0 L 673.0,718.0 L 675.0,716.0 L 679.0,708.0 L 686.0,700.0 L 686.0,699.0 L 700.0,685.0 L 704.0,683.0 L 711.0,677.0 L 727.0,669.0 L 732.0,668.0 L 738.0,665.0 L 741.0,665.0 L 745.0,663.0 L 750.0,663.0 L 751.0,662.0 L 760.0,662.0 L 761.0,661.0 L 776.0,661.0 L 777.0,662.0 L 785.0,662.0 L 786.0,663.0 L 789.0,663.0 L 790.0,664.0 L 794.0,664.0 L 798.0,666.0 L 801.0,666.0 L 804.0,668.0 L 806.0,668.0 L 809.0,670.0 L 811.0,670.0 L 823.0,676.0 L 825.0,678.0 L 832.0,682.0 L 836.0,686.0 L 837.0,686.0 L 851.0,700.0 L 851.0,701.0 L 855.0,705.0 L 855.0,706.0 L 861.0,714.0 L 865.0,722.0 L 865.0,724.0 L 867.0,727.0 L 867.0,729.0 L 869.0,732.0 L 869.0,734.0 L 871.0,738.0 L 871.0,741.0 L 872.0,742.0 L 872.0,745.0 L 873.0,746.0 L 873.0,750.0 L 874.0,751.0 L 874.0,757.0 L 875.0,758.0 L 875.0,778.0 L 874.0,779.0 L 874.0,785.0 L 873.0,786.0 L 873.0,790.0 L 872.0,791.0 L 871.0,798.0 L 870.0,799.0 L 869.0,804.0 L 867.0,807.0 L 867.0,809.0 L 859.0,825.0 L 854.0,831.0 L 854.0,832.0 L 850.0,836.0 L 850.0,837.0 L 838.0,849.0 L 837.0,849.0 L 833.0,853.0 L 832.0,853.0 L 829.0,856.0 L 828.0,856.0 L 823.0,860.0 L 809.0,867.0 L 807.0,867.0 L 806.0,868.0 L 804.0,868.0 L 803.0,869.0 L 801.0,869.0 L 797.0,871.0 L 794.0,871.0 L 793.0,872.0 L 790.0,872.0 L 789.0,873.0 L 785.0,873.0 L 784.0,874.0 L 777.0,874.0 L 776.0,875.0 L 759.0,875.0 L 758.0,874.0 L 751.0,874.0 L 750.0,873.0 L 746.0,873.0 L 742.0,871.0 L 739.0,871.0 L 738.0,870.0 L 736.0,870.0 L 735.0,869.0 L 727.0,867.0 L 720.0,863.0 L 718.0,863.0 L 716.0,861.0 L 713.0,860.0 L 711.0,858.0 L 707.0,856.0 L 699.0,849.0 L 698.0,849.0 L 683.0,833.0 L 683.0,832.0 L 680.0,829.0 L 680.0,828.0 L 674.0,820.0 L 674.0,818.0 L 670.0,811.0 L 670.0,809.0 L 668.0,806.0 L 668.0,804.0 L 666.0,801.0 L 666.0,798.0 L 664.0,794.0 L 664.0,790.0 L 663.0,789.0 L 663.0,786.0 L 662.0,785.0 L 662.0,778.0 L 661.0,777.0 L 661.0,768.0 Z"
     fill="#ffffff"
     stroke="none"
     id="path5" />
</svg>
